<svg width="32" height="32" viewBox="0 0 32 32" fill="none" xmlns="http://www.w3.org/2000/svg">
<circle cx="16.0034" cy="16.0005" r="16" fill="#79AA00"/>
<path d="M15.9134 14.0805C16.4334 14.0805 16.8834 14.2705 17.2634 14.6505C17.6434 15.0105 17.8334 15.4605 17.8334 16.0005C17.8334 16.5205 17.6434 16.9705 17.2634 17.3505C16.8834 17.7305 16.4334 17.9205 15.9134 17.9205C15.3734 17.9205 14.9134 17.7305 14.5334 17.3505C14.1534 16.9705 13.9634 16.5205 13.9634 16.0005C13.9634 15.4605 14.1534 15.0105 14.5334 14.6505C14.9134 14.2705 15.3734 14.0805 15.9134 14.0805ZM17.8934 19.4805C17.8934 19.9405 17.9834 20.3505 18.1634 20.7105C18.3434 21.0705 18.5734 21.3705 18.8534 21.6105C19.1534 21.8505 19.4734 22.0405 19.8134 22.1805C20.1734 22.3005 20.5234 22.3605 20.8634 22.3605C21.6434 22.3605 22.2934 22.1305 22.8134 21.6705C23.3534 21.2105 23.7834 20.6505 24.1034 19.9905C24.4234 19.3305 24.6534 18.6405 24.7934 17.9205C24.9334 17.1805 25.0034 16.5405 25.0034 16.0005C25.0034 14.7605 24.7634 13.5905 24.2834 12.4905C23.8234 11.3905 23.1834 10.4405 22.3634 9.64049C21.5434 8.82049 20.5834 8.18049 19.4834 7.72049C18.4034 7.24049 17.2434 7.00049 16.0034 7.00049C14.7634 7.00049 13.5934 7.24049 12.4934 7.72049C11.3934 8.18049 10.4334 8.82049 9.61342 9.64049C8.81342 10.4405 8.17342 11.3905 7.69342 12.4905C7.23342 13.5905 7.00342 14.7605 7.00342 16.0005C7.00342 17.2405 7.23342 18.4105 7.69342 19.5105C8.17342 20.5905 8.82342 21.5405 9.64342 22.3605C10.4634 23.1805 11.4134 23.8305 12.4934 24.3105C13.5934 24.7705 14.7634 25.0005 16.0034 25.0005C16.3234 25.0005 16.5934 24.8905 16.8134 24.6705C17.0534 24.4305 17.1734 24.1505 17.1734 23.8305C17.1734 23.5105 17.0534 23.2405 16.8134 23.0205C16.5934 22.7805 16.3234 22.6605 16.0034 22.6605C15.0834 22.6605 14.2134 22.4905 13.3934 22.1505C12.5934 21.7905 11.8834 21.3105 11.2634 20.7105C10.6634 20.1105 10.1834 19.4105 9.82342 18.6105C9.48342 17.7905 9.31342 16.9205 9.31342 16.0005C9.31342 15.0805 9.48342 14.2205 9.82342 13.4205C10.1834 12.6005 10.6634 11.8905 11.2634 11.2905C11.8834 10.6705 12.5934 10.1905 13.3934 9.85049C14.2134 9.49049 15.0834 9.31049 16.0034 9.31049C16.9234 9.31049 17.7834 9.49049 18.5834 9.85049C19.4034 10.1905 20.1134 10.6605 20.7134 11.2605C21.3134 11.8605 21.7834 12.5705 22.1234 13.3905C22.4834 14.2105 22.6634 15.0805 22.6634 16.0005C22.6634 16.5405 22.6034 17.0605 22.4834 17.5605C22.3634 18.0405 22.2134 18.4705 22.0334 18.8505C21.8734 19.2105 21.6934 19.5105 21.4934 19.7505C21.2934 19.9705 21.1034 20.0805 20.9234 20.0805C20.6034 20.0805 20.3934 19.9805 20.2934 19.7805C20.2134 19.5805 20.1734 19.4305 20.1734 19.3305V12.9705C20.1734 12.6305 20.0534 12.3505 19.8134 12.1305C19.5934 11.9105 19.3234 11.8005 19.0034 11.8005C18.7234 11.8005 18.4734 11.8905 18.2534 12.0705C18.0534 12.2505 17.9334 12.4405 17.8934 12.6405C17.8734 12.6205 17.8034 12.5705 17.6834 12.4905C17.5834 12.3905 17.4334 12.2905 17.2334 12.1905C17.0334 12.0905 16.7934 12.0005 16.5134 11.9205C16.2334 11.8405 15.9034 11.8005 15.5234 11.8005C15.0634 11.8005 14.6034 11.9105 14.1434 12.1305C13.6834 12.3305 13.2634 12.6205 12.8834 13.0005C12.5234 13.3605 12.2234 13.8005 11.9834 14.3205C11.7634 14.8405 11.6534 15.4005 11.6534 16.0005C11.6534 16.6005 11.7634 17.1605 11.9834 17.6805C12.2234 18.2005 12.5234 18.6505 12.8834 19.0305C13.2634 19.3905 13.6834 19.6805 14.1434 19.9005C14.6034 20.1005 15.0634 20.2005 15.5234 20.2005C15.9034 20.2005 16.2334 20.1605 16.5134 20.0805C16.7934 20.0005 17.0334 19.9105 17.2334 19.8105C17.4334 19.6905 17.5834 19.5905 17.6834 19.5105C17.8034 19.4105 17.8734 19.3505 17.8934 19.3305V19.4805Z" fill="white" stroke="#79AA00" stroke-width="0.5"/>
</svg>
