<svg width="21" height="24" viewBox="0 0 21 24" fill="none" xmlns="http://www.w3.org/2000/svg">
<path opacity="0.4" d="M15.4763 8.23381C15.0132 8.23381 14.6451 7.86186 14.6451 7.39391V5.8581C14.6451 4.68224 14.1464 3.55438 13.2915 2.76248C12.4128 1.95857 11.2847 1.58662 10.0973 1.6946C8.10246 1.88658 6.35696 3.93833 6.35696 6.07407V7.15394C6.35696 7.62188 5.98886 7.99384 5.52577 7.99384C5.06268 7.99384 4.69458 7.62188 4.69458 7.15394V6.07407C4.69458 3.07444 7.09316 0.302773 9.93107 0.0268068C11.5816 -0.129174 13.1727 0.398762 14.3957 1.52662C15.6069 2.63049 16.2956 4.2143 16.2956 5.8581V7.39391C16.2956 7.86186 15.9275 8.23381 15.4763 8.23381Z" fill="#E38800"/>
<path d="M19.9527 8.35355C18.9553 7.23769 17.3166 6.69775 14.9181 6.69775H6.08371C3.68513 6.69775 2.0465 7.23769 1.04907 8.35355C-0.102716 9.6494 -0.0670938 11.3772 0.0635217 12.577L0.894711 19.2602C1.14407 21.5999 2.08212 23.9997 7.188 23.9997H13.8138C18.9196 23.9997 19.8577 21.5999 20.1071 19.2722L20.9383 12.565C21.0689 11.3772 21.0926 9.6494 19.9527 8.35355ZM6.24995 13.3809H6.23807C5.58499 13.3809 5.05066 12.841 5.05066 12.1811C5.05066 11.5212 5.58499 10.9812 6.23807 10.9812C6.90302 10.9812 7.43736 11.5212 7.43736 12.1811C7.43736 12.841 6.90302 13.3809 6.24995 13.3809ZM14.5618 13.3809H14.55C13.8969 13.3809 13.3626 12.841 13.3626 12.1811C13.3626 11.5212 13.8969 10.9812 14.55 10.9812C15.2149 10.9812 15.7493 11.5212 15.7493 12.1811C15.7493 12.841 15.2149 13.3809 14.5618 13.3809Z" fill="#E38800"/>
</svg>
