<svg width="12" height="24" viewBox="0 0 12 24" fill="none" xmlns="http://www.w3.org/2000/svg">
<path d="M12 15.6V20.4C12 22.38 10.65 24 9 24H3C1.35 24 0 22.38 0 20.4V14.376L3.89001 14.4C4.62001 14.4 5.34 14.604 6 15C6.66 15.396 7.38 15.6 8.12 15.6H12Z" fill="#3486C1"/>
<path opacity="0.4" d="M12 10.5957V15.5997H8.12C7.38 15.5997 6.66 15.3957 6 14.9997C5.34 14.6037 4.62001 14.3997 3.89001 14.3997L0 14.3757V10.5957C0 10.0437 0.260027 9.2877 0.590027 8.8917L2.71002 6.34769C2.89002 6.13169 3 5.81969 3 5.50769V3.4917C3.16 3.5637 3.32 3.59969 3.5 3.59969H8.5C8.68 3.59969 8.84 3.5637 9 3.4917V5.50769C9 5.81969 9.10998 6.13169 9.28998 6.34769L11.41 8.8917C11.74 9.2877 12 10.0437 12 10.5957Z" fill="#3486C1"/>
<path d="M8.5 0H3.5C2.67 0 2 0.804 2 1.8C2 2.58 2.42 3.252 3 3.492C3.16 3.564 3.32 3.6 3.5 3.6H8.5C8.68 3.6 8.84 3.564 9 3.492C9.58 3.252 10 2.58 10 1.8C10 0.804 9.33 0 8.5 0Z" fill="#3486C1"/>
</svg>
