<svg width="24" height="24" viewBox="0 0 24 24" fill="none" xmlns="http://www.w3.org/2000/svg">
<path d="M23.9989 23.1095C23.9989 23.5962 23.6194 23.9998 23.1617 23.9998H0.837171C0.379518 23.9998 0 23.5962 0 23.1095C0 22.611 0.379518 22.2192 0.837171 22.2192H23.1617C23.6194 22.2192 23.9989 22.611 23.9989 23.1095Z" fill="#79AA00"/>
<path opacity="0.4" d="M22.0464 8.84029V22.218H1.89844L1.95425 8.8284C1.95425 8.10432 2.26679 7.41591 2.81374 6.96485L10.6273 0.507451C11.431 -0.16915 12.5696 -0.16915 13.3733 0.507451L21.1869 6.96485C21.7338 7.41591 22.0464 8.10433 22.0464 8.84029Z" fill="#79AA00"/>
<path d="M13.6753 6.78549H10.3265C9.86879 6.78549 9.48926 6.38189 9.48926 5.89519C9.48926 5.40849 9.86879 5.00488 10.3265 5.00488H13.6753C14.133 5.00488 14.5125 5.40849 14.5125 5.89519C14.5125 6.38189 14.133 6.78549 13.6753 6.78549Z" fill="#79AA00"/>
<path d="M15.9076 10.0518H8.09361C7.1671 10.0518 6.41919 10.8471 6.41919 11.8324V23.1096H17.582V11.8324C17.582 10.8471 16.8341 10.0518 15.9076 10.0518ZM10.6052 18.0645C10.6052 18.5512 10.2257 18.9548 9.76803 18.9548C9.31035 18.9548 8.93082 18.5512 8.93082 18.0645V16.2839C8.93082 15.7972 9.31035 15.3936 9.76803 15.3936C10.2257 15.3936 10.6052 15.7972 10.6052 16.2839V18.0645Z" fill="#79AA00"/>
</svg>
