<svg width="30" height="42" viewBox="0 0 30 42" fill="none" xmlns="http://www.w3.org/2000/svg">
<path d="M26.9989 23.1095C26.9989 23.5962 26.6194 23.9998 26.1617 23.9998H3.83717C3.37952 23.9998 3 23.5962 3 23.1095C3 22.611 3.37952 22.2192 3.83717 22.2192H26.1617C26.6194 22.2192 26.9989 22.611 26.9989 23.1095Z" fill="#1E252B"/>
<path opacity="0.4" d="M25.0464 8.84029V22.218H4.89844L4.95425 8.8284C4.95425 8.10432 5.26679 7.41591 5.81374 6.96485L13.6273 0.507451C14.431 -0.16915 15.5696 -0.16915 16.3733 0.507451L24.1869 6.96485C24.7338 7.41591 25.0464 8.10433 25.0464 8.84029Z" fill="#1E252B"/>
<path d="M16.6753 6.78549H13.3265C12.8688 6.78549 12.4893 6.38189 12.4893 5.89519C12.4893 5.40849 12.8688 5.00488 13.3265 5.00488H16.6753C17.133 5.00488 17.5125 5.40849 17.5125 5.89519C17.5125 6.38189 17.133 6.78549 16.6753 6.78549Z" fill="#1E252B"/>
<path d="M18.9078 10.0518H11.0939C10.1673 10.0518 9.41943 10.8471 9.41943 11.8324V23.1096H20.5822V11.8324C20.5822 10.8471 19.8343 10.0518 18.9078 10.0518ZM13.6055 18.0645C13.6055 18.5512 13.2259 18.9548 12.7683 18.9548C12.3106 18.9548 11.9311 18.5512 11.9311 18.0645V16.2839C11.9311 15.7972 12.3106 15.3936 12.7683 15.3936C13.2259 15.3936 13.6055 15.7972 13.6055 16.2839V18.0645Z" fill="#1E252B"/>
<path d="M0.682129 40V32.2495H2.06787V35.4722H5.83838V32.2495H7.21875V40H5.83838V36.6377H2.06787V40H0.682129ZM10.9731 40.1128C9.29736 40.1128 8.21777 38.9956 8.21777 37.1533V37.1426C8.21777 35.3164 9.31348 34.1885 10.9678 34.1885C12.6274 34.1885 13.7285 35.3057 13.7285 37.1426V37.1533C13.7285 39.001 12.6436 40.1128 10.9731 40.1128ZM10.9785 39.0332C11.8218 39.0332 12.3643 38.3457 12.3643 37.1533V37.1426C12.3643 35.9556 11.8164 35.2734 10.9678 35.2734C10.1353 35.2734 9.58203 35.9609 9.58203 37.1426V37.1533C9.58203 38.3511 10.1245 39.0332 10.9785 39.0332ZM14.5879 40V34.3066H15.9253V35.2197H15.9521C16.1938 34.5967 16.7793 34.1885 17.5312 34.1885C18.3262 34.1885 18.9009 34.6074 19.1104 35.3379H19.1426C19.4165 34.6289 20.0933 34.1885 20.915 34.1885C22.0376 34.1885 22.7734 34.9512 22.7734 36.0898V40H21.436V36.4229C21.436 35.7192 21.0708 35.3164 20.4155 35.3164C19.771 35.3164 19.3306 35.7944 19.3306 36.4819V40H18.0308V36.353C18.0308 35.7139 17.644 35.3164 17.021 35.3164C16.3765 35.3164 15.9253 35.8213 15.9253 36.5142V40H14.5879ZM26.3506 40.1128C24.6426 40.1128 23.6113 38.9795 23.6113 37.1694V37.1641C23.6113 35.3701 24.6587 34.1885 26.2861 34.1885C27.9136 34.1885 28.9233 35.3325 28.9233 37.0513V37.481H24.938C24.9595 38.48 25.5073 39.0708 26.3774 39.0708C27.0435 39.0708 27.4785 38.7163 27.6074 38.335L27.6182 38.2974H28.8696L28.8535 38.3564C28.6763 39.2319 27.8384 40.1128 26.3506 40.1128ZM26.3022 35.2358C25.5933 35.2358 25.0615 35.7139 24.9541 36.5894H27.6235C27.5269 35.687 27.0112 35.2358 26.3022 35.2358Z" fill="#1E252B"/>
</svg>
