<svg width="32" height="32" viewBox="0 0 32 32" fill="none" xmlns="http://www.w3.org/2000/svg">
<g clip-path="url(#clip0_522_1938)">
<path fill-rule="evenodd" clip-rule="evenodd" d="M7.14582 0.000488281H24.861C28.8034 0.000488281 32.0034 3.20689 32.0034 7.14289V24.8581C32.0034 28.8005 28.8034 32.0005 24.861 32.0005H7.14582C3.20982 32.0005 0.00341797 28.8005 0.00341797 24.8581V7.14289C0.00341797 3.20689 3.20982 0.000488281 7.14582 0.000488281ZM5.63542 16.0005C5.63542 21.7157 10.2882 26.3685 16.0034 26.3685C21.7186 26.3685 26.3714 21.7157 26.3714 16.0005C26.3714 10.2853 21.7186 5.63889 16.0034 5.63889C10.2882 5.63889 5.63542 10.2853 5.63542 16.0005ZM24.3938 5.33169C24.3938 6.54129 25.3794 7.52049 26.589 7.52049C27.7986 7.52049 28.7842 6.54129 28.7842 5.33169C28.7842 4.12209 27.7986 3.13649 26.589 3.13649C25.3794 3.13649 24.3938 4.12209 24.3938 5.33169ZM10.1344 16.0002C10.1344 12.7618 12.7648 10.1314 16.0032 10.1314C19.2416 10.1314 21.8784 12.7618 21.8784 16.0002C21.8784 19.2386 19.2416 21.8754 16.0032 21.8754C12.7648 21.8754 10.1344 19.2386 10.1344 16.0002Z" fill="#79AA00"/>
</g>
<defs>
<clipPath id="clip0_522_1938">
<rect width="32" height="32" fill="white" transform="translate(0.00341797 0.000488281)"/>
</clipPath>
</defs>
</svg>
