<svg width="234" height="21" viewBox="0 0 234 21" fill="none" xmlns="http://www.w3.org/2000/svg">
<path d="M0 20.6948V1.29639H8.24507C9.90024 1.29639 11.3893 1.90678 12.7614 3.10316C14.1335 4.29953 14.835 5.88657 14.835 7.86425C14.835 9.84194 14.1643 11.313 12.8168 12.5704C11.4693 13.8278 9.95561 14.4321 8.24507 14.4321H4.31943V20.6948H0ZM4.31943 10.5378H7.99279C8.58349 10.5378 9.17418 10.3425 9.70334 9.9274C10.2387 9.51233 10.5155 8.81647 10.5155 7.87035C10.5155 6.92424 10.2325 6.25891 9.70334 5.83773C9.16803 5.42266 8.58349 5.19682 7.99279 5.19682H4.31943V10.5378Z" fill="white"/>
<path d="M18.9636 20.6948V1.29639H23.2831V16.8005H30.9128V20.6948H18.9636Z" fill="white"/>
<path d="M33.2941 20.6948L41.373 1.29639H45.2187L53.2976 20.6948H48.6951L47.3784 17.4414H39.2133L37.8965 20.6948H33.2941ZM40.45 14.0171H46.1478L43.3174 6.97307L40.4562 14.0171H40.45Z" fill="white"/>
<path d="M57.0264 20.6948V1.29639H60.872L70.2431 13.3456V1.29639H74.421V20.6948H70.8892L61.2104 8.30984V20.6948H57.0325H57.0264Z" fill="white"/>
<path d="M79.6388 20.6948V1.29639H92.9909V5.19071H83.9582V8.83478H92.4002V12.6498H83.9582V16.7944H93.1878V20.6887H79.6388V20.6948Z" fill="white"/>
<path d="M101.544 20.6948V5.19071H96.2397V1.29639H111.081V5.19071H105.863V20.6948H101.544Z" fill="white"/>
<path d="M125.639 20.6948V1.29639H133.829C135.65 1.29639 137.225 1.90678 138.511 3.15809C139.828 4.38499 140.474 5.88657 140.474 7.69334C140.474 10.1716 139.102 12.314 136.997 13.2052L141.766 20.6887H136.887L132.819 14.2307H129.928V20.6887H125.633L125.639 20.6948ZM129.934 10.4523H133.355C135.041 10.4523 136.161 9.39635 136.161 7.75438C136.161 6.27722 135.096 5.19682 133.718 5.19682H129.934V10.4584V10.4523Z" fill="white"/>
<path d="M145.446 20.6948V1.29639H158.798V5.19071H149.765V8.83478H158.207V12.6498H149.765V16.7944H158.995V20.6887H145.446V20.6948Z" fill="white"/>
<path d="M162.219 14.8225V11.0381H172.26V14.8225H162.219Z" fill="white"/>
<path d="M176.666 20.6948V1.29639H184.437C186.006 1.29639 187.329 1.77249 188.394 2.7186C189.489 3.6342 190.018 4.83058 190.018 6.25281C190.018 8.11452 189.095 9.59168 187.52 10.1471C190.018 10.5927 191.446 12.485 191.446 14.9632C191.446 16.6051 190.886 17.9968 189.735 19.0834C188.615 20.1699 187.212 20.6948 185.502 20.6948H176.666ZM180.899 9.03621H183.73C184.966 9.03621 185.834 8.17556 185.834 6.97918C185.834 5.7828 184.966 4.97708 183.76 4.97708H180.899V9.04232V9.03621ZM180.899 16.9958H184.628C186.086 16.9958 187.151 15.9642 187.151 14.6275C187.151 13.2907 186.086 12.3446 184.597 12.3446H180.893V16.9897L180.899 16.9958Z" fill="white"/>
<path d="M193.778 20.6948L201.857 1.29639H205.702L213.781 20.6948H209.179L207.862 17.4414H199.697L198.38 20.6948H193.778ZM200.934 14.0171H206.631L203.801 6.97307L200.94 14.0171H200.934Z" fill="white"/>
<path d="M233.274 4.13451L230.357 6.66766C229.151 5.47128 227.607 4.8853 225.7 4.8853C223.958 4.8853 222.5 5.47129 221.294 6.63714C220.088 7.80911 219.497 9.25574 219.497 11.0076C219.497 12.7594 220.088 14.2061 221.263 15.378C222.469 16.5195 223.928 17.1054 225.693 17.1054C227.459 17.1054 228.838 16.6049 229.958 15.6039V12.9853H224.826V9.20081H234V17.0505C232.179 19.4738 229.09 20.9998 225.693 20.9998C222.746 20.9998 220.279 20.0537 218.23 18.1614C216.181 16.2387 215.172 13.8764 215.172 11.0076C215.172 8.13871 216.181 5.77648 218.23 3.85373C220.279 1.93098 222.746 0.984863 225.693 0.984863C228.641 0.984863 231.219 2.04086 233.268 4.12841L233.274 4.13451Z" fill="white"/>
</svg>
