<svg width="87" height="113" viewBox="0 0 87 113" fill="none" xmlns="http://www.w3.org/2000/svg">
<path d="M25.7593 83.5265L3.42994 105.678C1.4179 102.913 0.242676 99.5128 0.242676 95.8504V58.2134L25.7593 83.5265Z" fill="white"/>
<path d="M31.3032 89.0327L55.2078 112.747H17.2682C14.4131 112.747 11.7181 112.045 9.35535 110.812L31.3094 89.0327H31.3032Z" fill="white"/>
<path d="M23.9257 29.8423L64.4435 70.0308L43.8554 90.4669L0.242676 47.2142V29.8423H23.9257Z" fill="white"/>
<path d="M86.4898 29.8423V48.1664L69.9935 64.5373L35.0197 29.8423H86.4898Z" fill="white"/>
<path d="M75.5374 70.0372L86.4898 59.166V80.9022L75.5374 70.0372Z" fill="white"/>
<path d="M69.9934 75.5364L86.4897 91.9011V95.8504C86.4897 105.177 78.8661 112.74 69.4643 112.74H66.3016L49.3931 95.9664L69.9934 75.5303V75.5364Z" fill="white"/>
<path d="M42.6679 0C28.762 0 17.4589 11.0299 17.1512 24.7455H24.9964C25.2979 15.3393 33.1122 7.77646 42.6617 7.77646C52.2113 7.77646 60.0256 15.3332 60.3271 24.7455H68.1722C67.8646 11.0299 56.5614 0 42.6556 0H42.6679Z" fill="white"/>
</svg>
