<svg width="21" height="24" viewBox="0 0 21 24" fill="none" xmlns="http://www.w3.org/2000/svg">
<path opacity="0.4" d="M15.475 8.23388C15.012 8.23388 14.6439 7.86193 14.6439 7.39398V5.85815C14.6439 4.68228 14.1452 3.55441 13.2904 2.7625C12.4117 1.95859 11.2838 1.58663 10.0964 1.69462C8.10173 1.8866 6.35635 3.93837 6.35635 6.07413V7.15401C6.35635 7.62195 5.98828 7.99391 5.52522 7.99391C5.06216 7.99391 4.69409 7.62195 4.69409 7.15401V6.07413C4.69409 3.07446 7.0925 0.302776 9.93022 0.0268071C11.5806 -0.129175 13.1716 0.398765 14.3946 1.52664C15.6056 2.63051 16.2943 4.21434 16.2943 5.85815V7.39398C16.2943 7.86193 15.9262 8.23388 15.475 8.23388Z" fill="#FF3D3D"/>
<path d="M19.9513 8.35406C18.9539 7.23818 17.3154 6.69824 14.917 6.69824H6.08328C3.68487 6.69824 2.04636 7.23818 1.049 8.35406C-0.102709 9.64991 -0.0670891 11.3777 0.0635172 12.5776L0.894648 19.2608C1.14399 21.6006 2.08198 24.0003 7.1875 24.0003H13.8128C18.9183 24.0003 19.8563 21.6006 20.1056 19.2728L20.9368 12.5656C21.0674 11.3777 21.103 9.64991 19.9513 8.35406ZM10.5001 19.8968C8.01863 19.8968 6.00017 17.857 6.00017 15.3493C6.00017 12.8416 8.01863 10.8018 10.5001 10.8018C12.9817 10.8018 15.0001 12.8416 15.0001 15.3493C15.0001 17.857 12.9817 19.8968 10.5001 19.8968Z" fill="#FF3D3D"/>
<path opacity="0.4" d="M15 15.3492C15 17.857 12.9815 19.8967 10.5 19.8967C8.01846 19.8967 6 17.857 6 15.3492C6 12.8415 8.01846 10.8018 10.5 10.8018C12.9815 10.8018 15 12.8415 15 15.3492Z" fill="#FF3D3D"/>
<path d="M9.31272 17.4971C9.01589 17.4971 8.71906 17.3411 8.55283 17.0651C8.30349 16.6451 8.4341 16.0812 8.86154 15.8292L9.91826 15.1933V13.8975C9.91826 13.4055 10.322 12.9976 10.8088 12.9976C11.2956 12.9976 11.6874 13.3935 11.6874 13.8975V15.6973C11.6874 16.0092 11.5212 16.3092 11.2599 16.4652L9.77578 17.3651C9.6333 17.4491 9.46707 17.4971 9.31272 17.4971Z" fill="#FF3D3D"/>
</svg>
