<svg width="32" height="32" viewBox="0 0 32 32" fill="none" xmlns="http://www.w3.org/2000/svg">
<path d="M7.91368 29.808C10.2976 31.2 13.0656 32 16.0095 32C25.0173 32 32.5051 24.0482 31.9771 15.0564C31.4331 5.7766 23.0013 -1.37525 13.2895 0.224715C6.60168 1.32869 1.24182 6.75257 0.201839 13.4404C-0.406148 17.3123 0.39387 20.9762 2.13783 24.0002L0.713839 29.2961C0.393846 30.496 1.49779 31.584 2.68176 31.248L7.91368 29.808Z" fill="#79AA00"/>
<path d="M24.0093 21.0724C24.0093 21.3604 23.9453 21.6644 23.8013 21.9524C23.6573 22.2404 23.4813 22.5124 23.2573 22.7684C22.8574 23.2004 22.4254 23.5204 21.9454 23.7124C21.4654 23.9204 20.9373 24.0164 20.3773 24.0164C19.5614 24.0164 18.6814 23.8244 17.7694 23.4244C16.8414 23.0244 15.9295 22.4964 15.0175 21.8404C14.0895 21.1684 13.2255 20.4165 12.3935 19.6005C11.5615 18.7685 10.8256 17.8885 10.1536 16.9765C9.49765 16.0646 8.9696 15.1526 8.58561 14.2406C8.20162 13.3286 8.00964 12.4486 8.00964 11.6167C8.00964 11.0727 8.10563 10.5447 8.29763 10.0647C8.48962 9.56871 8.79364 9.12071 9.22563 8.72072C9.73762 8.20873 10.2976 7.96875 10.8896 7.96875C11.1136 7.96875 11.3376 8.01674 11.5456 8.11274C11.7536 8.20874 11.9455 8.35273 12.0895 8.56073L13.9295 11.2007C14.0735 11.4087 14.1855 11.5847 14.2495 11.7607C14.3295 11.9367 14.3615 12.0967 14.3615 12.2567C14.3615 12.4486 14.2975 12.6406 14.1855 12.8326C14.0735 13.0246 13.9295 13.2166 13.7375 13.4086L13.1295 14.0486C13.0335 14.1446 13.0015 14.2406 13.0015 14.3686C13.0015 14.4326 13.0176 14.4966 13.0336 14.5606C13.0656 14.6246 13.0815 14.6726 13.0975 14.7206C13.2415 14.9926 13.4976 15.3286 13.8496 15.7446C14.2175 16.1606 14.6015 16.5925 15.0175 17.0085C15.4495 17.4405 15.8655 17.8245 16.2974 18.1925C16.7134 18.5445 17.0655 18.7845 17.3375 18.9285C17.3855 18.9445 17.4334 18.9765 17.4814 18.9925C17.5454 19.0245 17.6094 19.0245 17.6894 19.0245C17.8334 19.0245 17.9294 18.9765 18.0254 18.8805L18.6334 18.2725C18.8414 18.0645 19.0334 17.9205 19.2094 17.8245C19.4014 17.7125 19.5774 17.6485 19.7854 17.6485C19.9454 17.6485 20.1053 17.6805 20.2813 17.7605C20.4573 17.8405 20.6494 17.9365 20.8414 18.0805L23.4973 19.9685C23.7053 20.1125 23.8493 20.2885 23.9453 20.4805C23.9613 20.6565 24.0093 20.8485 24.0093 21.0724Z" fill="white"/>
</svg>
